{"asset":{"version":"2.0","generator":"Blockbench 5.1.6 glTF exporter"},"scenes":[{"nodes":[0,1,2,3,4,5],"name":"blockbench_export"}],"scene":0,"nodes":[{"rotation":[-1.3971552390377852e-16,-0.7071067811865474,0.7071067811865477,2.263111295273278e-16],"translation":[0,1.0625,0],"name":"plane","mesh":0},{"rotation":[-1.3971552390377852e-16,-0.7071067811865474,0.7071067811865477,2.263111295273278e-16],"translation":[0,1.0625,0.0125],"name":"plane","mesh":1},{"rotation":[0,0,0.7071067811865475,0.7071067811865476],"translation":[0.75,1.0625,0],"name":"mesh","mesh":2},{"rotation":[0,0,0.7071067811865475,0.7071067811865476],"translation":[-0.6875,1.0625,0],"name":"mesh","mesh":3},{"translation":[0.03125000000000001,2.0625,0],"name":"mesh","mesh":4},{"translation":[0.03125000000000001,0,0],"name":"mesh","mesh":5}],"bufferViews":[{"buffer":0,"byteOffset":0,"byteLength":48,"target":34962,"byteStride":12},{"buffer":0,"byteOffset":48,"byteLength":48,"target":34962,"byteStride":12},{"buffer":0,"byteOffset":96,"byteLength":32,"target":34962,"byteStride":8},{"buffer":0,"byteOffset":128,"byteLength":12,"target":34963},{"buffer":0,"byteOffset":140,"byteLength":48,"target":34962,"byteStride":12},{"buffer":0,"byteOffset":188,"byteLength":48,"target":34962,"byteStride":12},{"buffer":0,"byteOffset":236,"byteLength":32,"target":34962,"byteStride":8},{"buffer":0,"byteOffset":268,"byteLength":12,"target":34963},{"buffer":0,"byteOffset":280,"byteLength":288,"target":34962,"byteStride":12},{"buffer":0,"byteOffset":568,"byteLength":288,"target":34962,"byteStride":12},{"buffer":0,"byteOffset":856,"byteLength":192,"target":34962,"byteStride":8},{"buffer":0,"byteOffset":1048,"byteLength":72,"target":34963},{"buffer":0,"byteOffset":1120,"byteLength":288,"target":34962,"byteStride":12},{"buffer":0,"byteOffset":1408,"byteLength":288,"target":34962,"byteStride":12},{"buffer":0,"byteOffset":1696,"byteLength":192,"target":34962,"byteStride":8},{"buffer":0,"byteOffset":1888,"byteLength":72,"target":34963},{"buffer":0,"byteOffset":1960,"byteLength":288,"target":34962,"byteStride":12},{"buffer":0,"byteOffset":2248,"byteLength":288,"target":34962,"byteStride":12},{"buffer":0,"byteOffset":2536,"byteLength":192,"target":34962,"byteStride":8},{"buffer":0,"byteOffset":2728,"byteLength":72,"target":34963},{"buffer":0,"byteOffset":2800,"byteLength":288,"target":34962,"byteStride":12},{"buffer":0,"byteOffset":3088,"byteLength":288,"target":34962,"byteStride":12},{"buffer":0,"byteOffset":3376,"byteLength":192,"target":34962,"byteStride":8},{"buffer":0,"byteOffset":3568,"byteLength":72,"target":34963}],"buffers":[{"byteLength":3640,"uri":"data:application/octet-stream;base64,"}],"accessors":[{"bufferView":0,"componentType":5126,"count":4,"max":[0.6875,0,1],"min":[-0.6875,0,-1],"type":"VEC3"},{"bufferView":1,"componentType":5126,"count":4,"max":[0,1,0],"min":[0,1,0],"type":"VEC3"},{"bufferView":2,"componentType":5126,"count":4,"max":[0.9921259880065918,1],"min":[0.005249343812465668,-0.0017606019973754883],"type":"VEC2"},{"bufferView":3,"componentType":5123,"count":6,"max":[3],"min":[0],"type":"SCALAR"},{"bufferView":4,"componentType":5126,"count":4,"max":[0.6875,0,1],"min":[-0.6875,0,-1],"type":"VEC3"},{"bufferView":5,"componentType":5126,"count":4,"max":[0,1,0],"min":[0,1,0],"type":"VEC3"},{"bufferView":6,"componentType":5126,"count":4,"max":[0.7322834730148315,0.8679577112197876],"min":[0.6561679840087891,0.8257042169570923],"type":"VEC2"},{"bufferView":7,"componentType":5123,"count":6,"max":[3],"min":[0],"type":"SCALAR"},{"bufferView":8,"componentType":5126,"count":24,"max":[1,0.0625,0.03125],"min":[-1,0,-0.03125],"type":"VEC3"},{"bufferView":9,"componentType":5126,"count":24,"max":[1,1,1],"min":[-1,-1,-1],"type":"VEC3"},{"bufferView":10,"componentType":5126,"count":24,"max":[0.9212598204612732,0.9683098793029785],"min":[0.8503937125205994,0.9330986142158508],"type":"VEC2"},{"bufferView":11,"componentType":5123,"count":36,"max":[23],"min":[0],"type":"SCALAR"},{"bufferView":12,"componentType":5126,"count":24,"max":[1.0625,0.0625,0.03125],"min":[-1.0625,0,-0.03125],"type":"VEC3"},{"bufferView":13,"componentType":5126,"count":24,"max":[1,1,1],"min":[-1,-1,-1],"type":"VEC3"},{"bufferView":14,"componentType":5126,"count":24,"max":[0.9212598204612732,0.9683098793029785],"min":[0.8503937125205994,0.9330986142158508],"type":"VEC2"},{"bufferView":15,"componentType":5123,"count":36,"max":[23],"min":[0],"type":"SCALAR"},{"bufferView":16,"componentType":5126,"count":24,"max":[0.71875,0.0625,0.03125],"min":[-0.71875,0,-0.03125],"type":"VEC3"},{"bufferView":17,"componentType":5126,"count":24,"max":[1,1,1],"min":[-1,-1,-1],"type":"VEC3"},{"bufferView":18,"componentType":5126,"count":24,"max":[0.9212598204612732,0.9683098793029785],"min":[0.8503937125205994,0.9330986142158508],"type":"VEC2"},{"bufferView":19,"componentType":5123,"count":36,"max":[23],"min":[0],"type":"SCALAR"},{"bufferView":20,"componentType":5126,"count":24,"max":[0.71875,0.0625,0.03125],"min":[-0.71875,0,-0.03125],"type":"VEC3"},{"bufferView":21,"componentType":5126,"count":24,"max":[1,1,1],"min":[-1,-1,-1],"type":"VEC3"},{"bufferView":22,"componentType":5126,"count":24,"max":[0.9212598204612732,0.9683098793029785],"min":[0.8503937125205994,0.9330986142158508],"type":"VEC2"},{"bufferView":23,"componentType":5123,"count":36,"max":[23],"min":[0],"type":"SCALAR"}],"materials":[{"pbrMetallicRoughness":{"metallicFactor":0,"roughnessFactor":1,"baseColorTexture":{"index":0}},"alphaMode":"MASK","alphaCutoff":0.05,"doubleSided":true}],"textures":[{"sampler":0,"source":0}],"samplers":[{"magFilter":9728,"minFilter":9728,"wrapS":33071,"wrapT":33071}],"images":[{"mimeType":"image/png","name":"monalisareal.png","uri":"monalisareal.png"}],"meshes":[{"primitives":[{"mode":4,"attributes":{"POSITION":0,"NORMAL":1,"TEXCOORD_0":2},"indices":3,"material":0}]},{"primitives":[{"mode":4,"attributes":{"POSITION":4,"NORMAL":5,"TEXCOORD_0":6},"indices":7,"material":0}]},{"primitives":[{"mode":4,"attributes":{"POSITION":8,"NORMAL":9,"TEXCOORD_0":10},"indices":11,"material":0}]},{"primitives":[{"mode":4,"attributes":{"POSITION":12,"NORMAL":13,"TEXCOORD_0":14},"indices":15,"material":0}]},{"primitives":[{"mode":4,"attributes":{"POSITION":16,"NORMAL":17,"TEXCOORD_0":18},"indices":19,"material":0}]},{"primitives":[{"mode":4,"attributes":{"POSITION":20,"NORMAL":21,"TEXCOORD_0":22},"indices":23,"material":0}]}]}