{"asset":{"version":"2.0","generator":"Blockbench 5.1.6 glTF exporter"},"scenes":[{"nodes":[0],"name":"blockbench_export"}],"scene":0,"nodes":[{"rotation":[0,0,0.06540312923014306,0.9978589232386035],"translation":[-0.125,1.09375,0.0375],"name":"torus","mesh":0}],"bufferViews":[{"buffer":0,"byteOffset":0,"byteLength":4176,"target":34962,"byteStride":12},{"buffer":0,"byteOffset":4176,"byteLength":4176,"target":34962,"byteStride":12},{"buffer":0,"byteOffset":8352,"byteLength":2784,"target":34962,"byteStride":8},{"buffer":0,"byteOffset":11136,"byteLength":1008,"target":34963}],"buffers":[{"byteLength":12144,"uri":"data:application/octet-stream;base64,"}],"accessors":[{"bufferView":0,"componentType":5126,"count":348,"max":[0.6841044425964355,0.08186829090118408,0.4625000059604645],"min":[-0.5912430882453918,-1.2918405532836914,-0.5375000238418579],"type":"VEC3"},{"bufferView":1,"componentType":5126,"count":348,"max":[0.8586165308952332,0.9914448857307434,1],"min":[-0.8586165308952332,-0.9914448857307434,-1],"type":"VEC3"},{"bufferView":2,"componentType":5126,"count":348,"max":[0.729793906211853,0.751953125],"min":[0.00009687500278232619,0],"type":"VEC2"},{"bufferView":3,"componentType":5123,"count":504,"max":[347],"min":[0],"type":"SCALAR"}],"materials":[{"pbrMetallicRoughness":{"metallicFactor":0,"roughnessFactor":1,"baseColorTexture":{"index":0}},"alphaMode":"MASK","alphaCutoff":0.05,"doubleSided":true}],"textures":[{"sampler":0,"source":0,"name":"real.png"}],"samplers":[{"magFilter":9728,"minFilter":9728,"wrapS":33071,"wrapT":33071}],"images":[{"mimeType":"image/png","name":"fake3.png","uri":"fake3.png"}],"meshes":[{"primitives":[{"mode":4,"attributes":{"POSITION":0,"NORMAL":1,"TEXCOORD_0":2},"indices":3,"material":0}]}]}