{"asset":{"version":"2.0","generator":"Blockbench 5.1.6 glTF exporter"},"scenes":[{"nodes":[0],"name":"blockbench_export"}],"scene":0,"nodes":[{"translation":[0,0.625,0],"name":"cylinder","mesh":0}],"bufferViews":[{"buffer":0,"byteOffset":0,"byteLength":5472,"target":34962,"byteStride":12},{"buffer":0,"byteOffset":5472,"byteLength":5472,"target":34962,"byteStride":12},{"buffer":0,"byteOffset":10944,"byteLength":3648,"target":34962,"byteStride":8},{"buffer":0,"byteOffset":14592,"byteLength":1296,"target":34963}],"buffers":[{"byteLength":15888,"uri":"data:application/octet-stream;base64,"}],"accessors":[{"bufferView":0,"componentType":5126,"count":456,"max":[0.581250011920929,1.125,0.606249988079071],"min":[-0.581250011920929,-0.625,-0.606249988079071],"type":"VEC3"},{"bufferView":1,"componentType":5126,"count":456,"max":[0.9950371980667114,1,0.997199296951294],"min":[-0.9950371980667114,-1,-0.997199296951294],"type":"VEC3"},{"bufferView":2,"componentType":5126,"count":456,"max":[0.9637951254844666,0.8095703125],"min":[0.0000872518794494681,0],"type":"VEC2"},{"bufferView":3,"componentType":5123,"count":648,"max":[455],"min":[0],"type":"SCALAR"}],"materials":[{"pbrMetallicRoughness":{"metallicFactor":0,"roughnessFactor":1,"baseColorTexture":{"index":0}},"alphaMode":"MASK","alphaCutoff":0.05,"doubleSided":true}],"textures":[{"sampler":0,"source":0,"name":"texture"}],"samplers":[{"magFilter":9728,"minFilter":9728,"wrapS":33071,"wrapT":33071}],"images":[{"mimeType":"image/png","name":"real.png","uri":"real.png"}],"meshes":[{"primitives":[{"mode":4,"attributes":{"POSITION":0,"NORMAL":1,"TEXCOORD_0":2},"indices":3,"material":0}]}]}